<?xml version="1.0" encoding="UTF-8" standalone="no"?><!DOCTYPE svg PUBLIC "-//W3C//DTD SVG 1.1//EN" "http://www.w3.org/Graphics/SVG/1.1/DTD/svg11.dtd"><svg width="100%" height="100%" viewBox="0 0 239 68" version="1.1" xmlns="http://www.w3.org/2000/svg" xmlns:xlink="http://www.w3.org/1999/xlink" xml:space="preserve" xmlns:serif="http://www.serif.com/" style="fill-rule:evenodd;clip-rule:evenodd;stroke-linejoin:round;stroke-miterlimit:2;"><g id="Layer1"></g><g id="Layer2"><g><path d="M53.726,49.57c-1.262,-1.262 -1.972,-2.975 -1.973,-4.76l0,-22.297c0,-1.785 0.71,-3.498 1.973,-4.76l15.78,-15.78c1.262,-1.262 2.975,-1.972 4.76,-1.973l22.297,0c1.785,0 3.498,0.71 4.76,1.973l15.78,15.78c1.262,1.262 1.972,2.975 1.973,4.76l0,22.297c-0,1.785 -0.71,3.498 -1.973,4.76l-15.78,15.78c-1.262,1.262 -2.975,1.972 -4.76,1.973l-22.297,0c-1.785,-0 -3.498,-0.71 -4.76,-1.973l-15.78,-15.78Z" style="fill:url(#_Linear1);fill-rule:nonzero;"/></g><g><path d="M1.876,39.652c-1.251,-1.376 -1.876,-3.28 -1.876,-5.713c0,-2.433 0.625,-4.337 1.876,-5.713c1.251,-1.376 2.937,-2.064 5.059,-2.064c2.122,0 3.803,0.688 5.044,2.064c1.241,1.376 1.861,3.28 1.861,5.713c0,2.433 -0.62,4.337 -1.861,5.713c-1.241,1.376 -2.922,2.064 -5.044,2.064c-2.122,0 -3.808,-0.688 -5.059,-2.064Zm5.074,-8.495c-1.131,0 -1.696,0.917 -1.696,2.752c0,1.835 0.565,2.752 1.696,2.752c1.131,0 1.696,-0.917 1.696,-2.752c0,-1.835 -0.565,-2.752 -1.696,-2.752Z" style="fill:url(#_Linear2);fill-rule:nonzero;"/><path d="M22.246,41.237c0,0.14 -0.721,0.209 -2.162,0.209c-2.001,-0.06 -3.002,-0.17 -3.002,-0.329l0,-9.692l-0.781,0c-0.52,0 -0.861,-0.439 -1.021,-1.316c-0.04,-0.259 -0.06,-0.518 -0.06,-0.778c0,-0.618 0.12,-1.236 0.36,-1.855c0.36,-0.877 0.921,-1.316 1.681,-1.316c0.761,0 1.441,0.179 2.042,0.538c0.6,0.359 1.001,0.718 1.201,1.077c1.261,-1.077 2.762,-1.615 4.503,-1.615c1.741,0 3.002,0.469 3.783,1.406c0.781,0.937 1.171,2.473 1.171,4.607l0,8.974c0,0.239 -0.856,0.359 -2.567,0.359c-1.711,0 -2.567,-0.12 -2.567,-0.359l0,-8.645c0,-0.997 -0.35,-1.496 -1.051,-1.496c-0.2,0 -0.48,0.085 -0.841,0.254c-0.36,0.17 -0.59,0.294 -0.691,0.374l0,9.602Z" style="fill:url(#_Linear3);fill-rule:nonzero;"/><path d="M43.862,40.609c-1.261,0.738 -2.882,1.107 -4.864,1.107c-1.981,0 -3.653,-0.673 -5.014,-2.019c-1.361,-1.346 -2.042,-3.211 -2.042,-5.594c0,-2.383 0.655,-4.302 1.966,-5.758c1.311,-1.456 2.967,-2.184 4.969,-2.184c2.001,0 3.548,0.509 4.638,1.526c1.091,1.017 1.636,2.253 1.636,3.709c0,3.231 -1.861,4.846 -5.584,4.846l-2.072,0c0,0.598 0.165,1.012 0.495,1.241c0.33,0.229 0.816,0.344 1.456,0.344c1.401,0 2.732,-0.319 3.993,-0.957c0.02,-0.02 0.11,0.12 0.27,0.419c0.48,0.858 0.721,1.58 0.721,2.169c0,0.588 -0.19,0.972 -0.57,1.152Zm-3.753,-8.645c0,-0.838 -0.41,-1.256 -1.231,-1.256c-0.38,0 -0.706,0.115 -0.976,0.344c-0.27,0.229 -0.405,0.563 -0.405,1.002l0,0.927l1.621,0c0.66,0 0.991,-0.339 0.991,-1.017Z" style="fill:url(#_Linear4);fill-rule:nonzero;"/><path d="M59.022,36.016c1.62,0.98 2.9,1.47 3.84,1.47c0.6,0 0.9,-0.21 0.9,-0.63c0,-0.3 -0.52,-0.69 -1.56,-1.17c-2.5,-1.02 -3.75,-2.69 -3.75,-5.01c0,-1.48 0.54,-2.61 1.62,-3.39c1.08,-0.78 2.375,-1.17 3.885,-1.17c1.51,0 2.79,0.16 3.84,0.48c1.05,0.32 1.575,0.74 1.575,1.26c0,0.44 -0.215,1.02 -0.645,1.74c-0.43,0.72 -0.725,1.11 -0.885,1.17c-0.86,-0.48 -1.79,-0.72 -2.79,-0.72c-0.54,0 -0.81,0.19 -0.81,0.57c0,0.24 0.105,0.445 0.315,0.615c0.21,0.17 0.595,0.38 1.155,0.63c0.56,0.25 1.025,0.475 1.395,0.675c0.37,0.2 0.785,0.48 1.245,0.84c0.96,0.76 1.44,1.75 1.44,2.97c0,1.6 -0.53,2.895 -1.59,3.885c-1.06,0.99 -2.66,1.485 -4.8,1.485c-1.42,0 -2.71,-0.24 -3.87,-0.72c-1.16,-0.48 -1.74,-1.14 -1.74,-1.98c0,-0.56 0.135,-1.15 0.405,-1.77c0.27,-0.62 0.545,-1.03 0.825,-1.23Z" style="fill:#fff;fill-rule:nonzero;"/><path d="M78.792,41.236c0,0.24 -0.84,0.36 -2.52,0.36c-2,-0.08 -3,-0.21 -3,-0.39l0,-10.62l-1.53,0c-0.4,0 -0.6,-0.69 -0.6,-2.07c0,-0.36 0.035,-0.8 0.105,-1.32c0.07,-0.52 0.215,-0.78 0.435,-0.78l1.59,0l0,-2.64c0,-0.4 0.845,-0.6 2.535,-0.6c1.69,0 2.535,0.16 2.535,0.48l0,1.92l0.03,0.84l2.55,0c0.34,0 0.51,0.7 0.51,2.1c0,1.4 -0.17,2.1 -0.51,2.1l-2.13,0l0,10.62Z" style="fill:#fff;fill-rule:nonzero;"/><path d="M84.237,39.646c-1.25,-1.38 -1.875,-3.29 -1.875,-5.73c0,-2.44 0.625,-4.35 1.875,-5.73c1.25,-1.38 2.935,-2.07 5.055,-2.07c2.12,0 3.8,0.69 5.04,2.07c1.24,1.38 1.86,3.29 1.86,5.73c0,2.44 -0.62,4.35 -1.86,5.73c-1.24,1.38 -2.92,2.07 -5.04,2.07c-2.12,0 -3.805,-0.69 -5.055,-2.07Zm5.07,-8.52c-1.13,0 -1.695,0.92 -1.695,2.76c0,1.84 0.565,2.76 1.695,2.76c1.13,0 1.695,-0.92 1.695,-2.76c0,-1.84 -0.565,-2.76 -1.695,-2.76Z" style="fill:#fff;fill-rule:nonzero;"/><path d="M104.772,46.876c0,0.14 -0.855,0.21 -2.565,0.21c-1.71,0 -2.565,-0.07 -2.565,-0.21l0,-15.45l-1.02,0c-0.48,0 -0.81,-0.44 -0.99,-1.32c-0.06,-0.28 -0.09,-0.64 -0.09,-1.08c0,-0.44 0.14,-0.96 0.42,-1.56c0.4,-0.88 1.04,-1.32 1.92,-1.32c0.58,0 1.115,0.135 1.605,0.405c0.49,0.27 0.83,0.52 1.02,0.75c0.19,0.23 0.285,0.365 0.285,0.405c1.34,-1.04 2.79,-1.56 4.35,-1.56c1.56,0 2.9,0.605 4.02,1.815c1.12,1.21 1.68,3.08 1.68,5.61c0,2.53 -0.56,4.49 -1.68,5.88c-1.12,1.39 -2.54,2.085 -4.26,2.085c-0.78,0 -1.49,-0.04 -2.13,-0.12l0,5.46Zm1.23,-15.48c-0.34,0 -0.67,0.11 -0.99,0.33l0,5.31c0.34,0.04 0.615,0.06 0.825,0.06l0.495,0c0.82,-0.08 1.23,-1.13 1.23,-3.15c0,-1.7 -0.52,-2.55 -1.56,-2.55Z" style="fill:#fff;fill-rule:nonzero;"/><path d="M133.842,20.596c0,-0.3 0.79,-0.45 2.37,-0.45c0.54,0 1.165,0.035 1.875,0.105c0.71,0.07 1.065,0.165 1.065,0.285l0,15.81l1.05,0c0.5,0 0.83,0.45 0.99,1.35c0.04,0.26 0.06,0.615 0.06,1.065c0,0.45 -0.14,0.995 -0.42,1.635c-0.4,0.88 -1.04,1.32 -1.92,1.32c-0.66,0 -1.245,-0.13 -1.755,-0.39c-0.51,-0.26 -0.855,-0.53 -1.035,-0.81l-0.27,-0.39c-1.1,1.06 -2.48,1.59 -4.14,1.59c-1.66,0 -3.08,-0.69 -4.26,-2.07c-1.18,-1.38 -1.77,-3.305 -1.77,-5.775c0,-2.47 0.62,-4.38 1.86,-5.73c1.24,-1.35 2.79,-2.025 4.65,-2.025c0.54,0 1.09,0.06 1.65,0.18l0,-5.7Zm-0.99,10.32c-1.12,0 -1.68,1.01 -1.68,3.03c0,1.02 0.16,1.755 0.48,2.205c0.32,0.45 0.675,0.675 1.065,0.675c0.39,0 0.765,-0.17 1.125,-0.51l0,-5.1c-0.34,-0.2 -0.67,-0.3 -0.99,-0.3Z" style="fill:url(#_Linear5);fill-rule:nonzero;"/><path d="M144.507,39.646c-1.25,-1.38 -1.875,-3.29 -1.875,-5.73c0,-2.44 0.625,-4.35 1.875,-5.73c1.25,-1.38 2.935,-2.07 5.055,-2.07c2.12,0 3.8,0.69 5.04,2.07c1.24,1.38 1.86,3.29 1.86,5.73c0,2.44 -0.62,4.35 -1.86,5.73c-1.24,1.38 -2.92,2.07 -5.04,2.07c-2.12,0 -3.805,-0.69 -5.055,-2.07Zm5.07,-8.52c-1.13,0 -1.695,0.92 -1.695,2.76c0,1.84 0.565,2.76 1.695,2.76c1.13,0 1.695,-0.92 1.695,-2.76c0,-1.84 -0.565,-2.76 -1.695,-2.76Z" style="fill:url(#_Linear6);fill-rule:nonzero;"/><path d="M164.112,41.416c-1.94,0 -3.44,-0.625 -4.5,-1.875c-1.06,-1.25 -1.59,-3.1 -1.59,-5.55c0,-2.45 0.695,-4.37 2.085,-5.76c1.39,-1.39 3.24,-2.085 5.55,-2.085c2.31,0 4.215,0.51 5.715,1.53l0,14.94c0,1.48 -0.6,2.615 -1.8,3.405c-1.2,0.79 -2.74,1.185 -4.62,1.185c-1.88,0 -3.56,-0.24 -5.04,-0.72c-0.2,-0.48 -0.3,-0.91 -0.3,-1.29c0,-1.28 0.21,-2.22 0.63,-2.82c1.34,0.58 2.77,0.87 4.29,0.87c1.1,0 1.65,-0.39 1.65,-1.17l0,-0.9c-0.86,0.16 -1.55,0.24 -2.07,0.24Zm1.38,-10.38c-1.34,0 -2.01,1.01 -2.01,3.03c0,1.26 0.26,2.08 0.78,2.46c0.34,0.26 0.68,0.39 1.02,0.39c0.34,0 0.64,-0.03 0.9,-0.09l0,-5.7c-0.24,-0.06 -0.47,-0.09 -0.69,-0.09Z" style="fill:url(#_Linear7);fill-rule:nonzero;"/><path d="M180.342,36.016c1.62,0.98 2.9,1.47 3.84,1.47c0.6,0 0.9,-0.21 0.9,-0.63c0,-0.3 -0.52,-0.69 -1.56,-1.17c-2.5,-1.02 -3.75,-2.69 -3.75,-5.01c0,-1.48 0.54,-2.61 1.62,-3.39c1.08,-0.78 2.375,-1.17 3.885,-1.17c1.51,0 2.79,0.16 3.84,0.48c1.05,0.32 1.575,0.74 1.575,1.26c0,0.44 -0.215,1.02 -0.645,1.74c-0.43,0.72 -0.725,1.11 -0.885,1.17c-0.86,-0.48 -1.79,-0.72 -2.79,-0.72c-0.54,0 -0.81,0.19 -0.81,0.57c0,0.24 0.105,0.445 0.315,0.615c0.21,0.17 0.595,0.38 1.155,0.63c0.56,0.25 1.025,0.475 1.395,0.675c0.37,0.2 0.785,0.48 1.245,0.84c0.96,0.76 1.44,1.75 1.44,2.97c0,1.6 -0.53,2.895 -1.59,3.885c-1.06,0.99 -2.66,1.485 -4.8,1.485c-1.42,0 -2.71,-0.24 -3.87,-0.72c-1.16,-0.48 -1.74,-1.14 -1.74,-1.98c0,-0.56 0.135,-1.15 0.405,-1.77c0.27,-0.62 0.545,-1.03 0.825,-1.23Z" style="fill:url(#_Linear8);fill-rule:nonzero;"/><path d="M198.222,41.206c0,0.18 -0.835,0.27 -2.505,0.27c-1.67,0 -2.505,-0.14 -2.505,-0.42l0,-20.55c0,-0.14 0.31,-0.24 0.93,-0.3c0.62,-0.06 1.14,-0.09 1.56,-0.09c1.68,0 2.52,0.18 2.52,0.54l0,6c1.12,-0.34 1.97,-0.51 2.55,-0.51c1.52,0 2.72,0.405 3.6,1.215c0.88,0.81 1.32,2.315 1.32,4.515l0,9.3c0,0.18 -0.78,0.27 -2.34,0.27c-1.76,-0.06 -2.64,-0.16 -2.64,-0.3l0,-8.82c0,-0.98 -0.32,-1.47 -0.96,-1.47c-0.44,0 -0.95,0.21 -1.53,0.63l0,9.72Z" style="fill:url(#_Linear9);fill-rule:nonzero;"/><path d="M209.547,39.646c-1.25,-1.38 -1.875,-3.29 -1.875,-5.73c0,-2.44 0.625,-4.35 1.875,-5.73c1.25,-1.38 2.935,-2.07 5.055,-2.07c2.12,0 3.8,0.69 5.04,2.07c1.24,1.38 1.86,3.29 1.86,5.73c0,2.44 -0.62,4.35 -1.86,5.73c-1.24,1.38 -2.92,2.07 -5.04,2.07c-2.12,0 -3.805,-0.69 -5.055,-2.07Zm5.07,-8.52c-1.13,0 -1.695,0.92 -1.695,2.76c0,1.84 0.565,2.76 1.695,2.76c1.13,0 1.695,-0.92 1.695,-2.76c0,-1.84 -0.565,-2.76 -1.695,-2.76Z" style="fill:url(#_Linear10);fill-rule:nonzero;"/><path d="M230.082,46.876c0,0.14 -0.855,0.21 -2.565,0.21c-1.71,0 -2.565,-0.07 -2.565,-0.21l0,-15.45l-1.02,0c-0.48,0 -0.81,-0.44 -0.99,-1.32c-0.06,-0.28 -0.09,-0.64 -0.09,-1.08c0,-0.44 0.14,-0.96 0.42,-1.56c0.4,-0.88 1.04,-1.32 1.92,-1.32c0.58,0 1.115,0.135 1.605,0.405c0.49,0.27 0.83,0.52 1.02,0.75c0.19,0.23 0.285,0.365 0.285,0.405c1.34,-1.04 2.79,-1.56 4.35,-1.56c1.56,0 2.9,0.605 4.02,1.815c1.12,1.21 1.68,3.08 1.68,5.61c0,2.53 -0.56,4.49 -1.68,5.88c-1.12,1.39 -2.54,2.085 -4.26,2.085c-0.78,0 -1.49,-0.04 -2.13,-0.12l0,5.46Zm1.23,-15.48c-0.34,0 -0.67,0.11 -0.99,0.33l0,5.31c0.34,0.04 0.615,0.06 0.825,0.06l0.495,0c0.82,-0.08 1.23,-1.13 1.23,-3.15c0,-1.7 -0.52,-2.55 -1.56,-2.55Z" style="fill:url(#_Linear11);fill-rule:nonzero;"/></g></g><defs><linearGradient id="_Linear1" x1="0" y1="0" x2="1" y2="0" gradientUnits="userSpaceOnUse" gradientTransform="matrix(-25.737326,67.322835,-67.322835,-25.737326,99.30246,0)"><stop offset="0" style="stop-color:#ff7ca6;stop-opacity:1"/><stop offset="0.31" style="stop-color:#f03e76;stop-opacity:1"/><stop offset="1" style="stop-color:#8e1239;stop-opacity:1"/></linearGradient><linearGradient id="_Linear2" x1="0" y1="0" x2="1" y2="0" gradientUnits="userSpaceOnUse" gradientTransform="matrix(-0.494963,67.322835,-67.322835,-0.494963,92.373153,0)"><stop offset="0" style="stop-color:#ff7ca6;stop-opacity:1"/><stop offset="0.31" style="stop-color:#f03e76;stop-opacity:1"/><stop offset="1" style="stop-color:#8e1239;stop-opacity:1"/></linearGradient><linearGradient id="_Linear3" x1="0" y1="0" x2="1" y2="0" gradientUnits="userSpaceOnUse" gradientTransform="matrix(-0.494963,67.322835,-67.322835,-0.494963,92.373153,0)"><stop offset="0" style="stop-color:#ff7ca6;stop-opacity:1"/><stop offset="0.31" style="stop-color:#f03e76;stop-opacity:1"/><stop offset="1" style="stop-color:#8e1239;stop-opacity:1"/></linearGradient><linearGradient id="_Linear4" x1="0" y1="0" x2="1" y2="0" gradientUnits="userSpaceOnUse" gradientTransform="matrix(-0.494963,67.322835,-67.322835,-0.494963,92.373153,0)"><stop offset="0" style="stop-color:#ff7ca6;stop-opacity:1"/><stop offset="0.31" style="stop-color:#f03e76;stop-opacity:1"/><stop offset="1" style="stop-color:#8e1239;stop-opacity:1"/></linearGradient><linearGradient id="_Linear5" x1="0" y1="0" x2="1" y2="0" gradientUnits="userSpaceOnUse" gradientTransform="matrix(-0.494963,67.322835,-67.322835,-0.494963,92.373153,0)"><stop offset="0" style="stop-color:#ff7ca6;stop-opacity:1"/><stop offset="0.31" style="stop-color:#f03e76;stop-opacity:1"/><stop offset="1" style="stop-color:#8e1239;stop-opacity:1"/></linearGradient><linearGradient id="_Linear6" x1="0" y1="0" x2="1" y2="0" gradientUnits="userSpaceOnUse" gradientTransform="matrix(-0.494963,67.322835,-67.322835,-0.494963,92.373153,0)"><stop offset="0" style="stop-color:#ff7ca6;stop-opacity:1"/><stop offset="0.31" style="stop-color:#f03e76;stop-opacity:1"/><stop offset="1" style="stop-color:#8e1239;stop-opacity:1"/></linearGradient><linearGradient id="_Linear7" x1="0" y1="0" x2="1" y2="0" gradientUnits="userSpaceOnUse" gradientTransform="matrix(-0.494963,67.322835,-67.322835,-0.494963,92.373153,0)"><stop offset="0" style="stop-color:#ff7ca6;stop-opacity:1"/><stop offset="0.31" style="stop-color:#f03e76;stop-opacity:1"/><stop offset="1" style="stop-color:#8e1239;stop-opacity:1"/></linearGradient><linearGradient id="_Linear8" x1="0" y1="0" x2="1" y2="0" gradientUnits="userSpaceOnUse" gradientTransform="matrix(-0.494963,67.322835,-67.322835,-0.494963,92.373153,0)"><stop offset="0" style="stop-color:#ff7ca6;stop-opacity:1"/><stop offset="0.31" style="stop-color:#f03e76;stop-opacity:1"/><stop offset="1" style="stop-color:#8e1239;stop-opacity:1"/></linearGradient><linearGradient id="_Linear9" x1="0" y1="0" x2="1" y2="0" gradientUnits="userSpaceOnUse" gradientTransform="matrix(-0.494963,67.322835,-67.322835,-0.494963,92.373153,0)"><stop offset="0" style="stop-color:#ff7ca6;stop-opacity:1"/><stop offset="0.31" style="stop-color:#f03e76;stop-opacity:1"/><stop offset="1" style="stop-color:#8e1239;stop-opacity:1"/></linearGradient><linearGradient id="_Linear10" x1="0" y1="0" x2="1" y2="0" gradientUnits="userSpaceOnUse" gradientTransform="matrix(-0.494963,67.322835,-67.322835,-0.494963,92.373153,0)"><stop offset="0" style="stop-color:#ff7ca6;stop-opacity:1"/><stop offset="0.31" style="stop-color:#f03e76;stop-opacity:1"/><stop offset="1" style="stop-color:#8e1239;stop-opacity:1"/></linearGradient><linearGradient id="_Linear11" x1="0" y1="0" x2="1" y2="0" gradientUnits="userSpaceOnUse" gradientTransform="matrix(-0.494963,67.322835,-67.322835,-0.494963,92.373153,0)"><stop offset="0" style="stop-color:#ff7ca6;stop-opacity:1"/><stop offset="0.31" style="stop-color:#f03e76;stop-opacity:1"/><stop offset="1" style="stop-color:#8e1239;stop-opacity:1"/></linearGradient></defs></svg>