<svg version="1.2" baseProfile="tiny-ps" xmlns="http://www.w3.org/2000/svg" viewBox="0 0 68 68">
  <title>One Stop Dog Shop</title>
  <path d="M2.586,16.726C2.211,16.351 2,15.842 2,15.312L2,8.688C2,8.158 2.211,7.649 2.586,7.274L7.274,2.586C7.649,2.211 8.158,2 8.688,2L15.312,2C15.842,2 16.351,2.211 16.726,2.586L21.414,7.274C21.789,7.649 22,8.158 22,8.688L22,15.312C22,15.842 21.789,16.351 21.414,16.726L16.726,21.414C16.351,21.789 15.842,22 15.312,22L8.688,22C8.158,22 7.649,21.789 7.274,21.414L2.586,16.726Z" fill="#f03e76"/>
  <path d="M1935.637,2671.157C1936.485,2671.672 1937.155,2671.929 1937.647,2671.929C1937.961,2671.929 1938.119,2671.819 1938.119,2671.598C1938.119,2671.441 1937.846,2671.236 1937.302,2670.983C1935.993,2670.448 1935.339,2669.57 1935.339,2668.351C1935.339,2667.573 1935.621,2666.98 1936.187,2666.57C1936.752,2666.16 1937.43,2665.955 1938.221,2665.955C1939.011,2665.955 1939.681,2666.039 1940.231,2666.207C1940.781,2666.375 1941.056,2666.596 1941.056,2666.869C1941.056,2667.1 1940.943,2667.405 1940.718,2667.784C1940.493,2668.162 1940.338,2668.367 1940.255,2668.398C1939.804,2668.146 1939.317,2668.02 1938.794,2668.02C1938.511,2668.02 1938.37,2668.12 1938.37,2668.32C1938.37,2668.446 1938.425,2668.553 1938.535,2668.643C1938.645,2668.732 1938.846,2668.842 1939.139,2668.974C1939.433,2669.105 1939.676,2669.223 1939.87,2669.328C1940.063,2669.433 1940.281,2669.581 1940.522,2669.77C1941.024,2670.169 1941.275,2670.689 1941.275,2671.33C1941.275,2672.171 1940.998,2672.851 1940.443,2673.372C1939.888,2673.892 1939.05,2674.152 1937.93,2674.152C1937.187,2674.152 1936.511,2674.026 1935.904,2673.774C1935.297,2673.521 1934.993,2673.175 1934.993,2672.733C1934.993,2672.439 1935.064,2672.129 1935.205,2671.803C1935.346,2671.477 1935.49,2671.262 1935.637,2671.157Z" fill="white"/>
  <path d="M1945.987,2673.9C1945.987,2674.026 1945.547,2674.089 1944.668,2674.089C1943.621,2674.047 1943.097,2673.978 1943.097,2673.884L1943.097,2668.304L1942.296,2668.304C1942.087,2668.304 1941.982,2667.941 1941.982,2667.216C1941.982,2667.027 1942,2666.796 1942.037,2666.523C1942.074,2666.249 1942.15,2666.113 1942.265,2666.113L1943.097,2666.113L1943.097,2664.726C1943.097,2664.515 1943.54,2664.41 1944.424,2664.41C1945.309,2664.41 1945.752,2664.494 1945.752,2664.662L1945.752,2665.671L1945.767,2666.113L1947.102,2666.113C1947.28,2666.113 1947.369,2666.48 1947.369,2667.216C1947.369,2667.952 1947.28,2668.32 1947.102,2668.32L1945.987,2668.32L1945.987,2673.9Z" fill="white"/>
  <path d="M1948.838,2673.064C1948.183,2672.339 1947.856,2671.336 1947.856,2670.053C1947.856,2668.771 1948.183,2667.768 1948.838,2667.043C1949.492,2666.318 1950.374,2665.955 1951.484,2665.955C1952.594,2665.955 1953.474,2666.318 1954.123,2667.043C1954.772,2667.768 1955.096,2668.771 1955.096,2670.053C1955.096,2671.336 1954.772,2672.339 1954.123,2673.064C1953.474,2673.789 1952.594,2674.152 1951.484,2674.152C1950.374,2674.152 1949.492,2673.789 1948.838,2673.064ZM1951.492,2668.587C1950.9,2668.587 1950.605,2669.071 1950.605,2670.038C1950.605,2671.004 1950.9,2671.488 1951.492,2671.488C1952.084,2671.488 1952.379,2671.004 1952.379,2670.038C1952.379,2669.071 1952.084,2668.587 1951.492,2668.587Z" fill="white"/>
  <path d="M1959.588,2676.863C1959.588,2676.937 1959.141,2676.973 1958.245,2676.973C1957.35,2676.973 1956.903,2676.937 1956.903,2676.863L1956.903,2668.745L1956.369,2668.745C1956.117,2668.745 1955.945,2668.514 1955.85,2668.052C1955.819,2667.904 1955.803,2667.715 1955.803,2667.484C1955.803,2667.253 1955.877,2666.98 1956.023,2666.664C1956.233,2666.202 1956.568,2665.971 1957.028,2665.971C1957.332,2665.971 1957.612,2666.042 1957.869,2666.184C1958.125,2666.325 1958.303,2666.457 1958.403,2666.578C1958.502,2666.699 1958.552,2666.769 1958.552,2666.79C1959.253,2666.244 1960.012,2665.971 1960.829,2665.971C1961.646,2665.971 1962.347,2666.289 1962.934,2666.924C1963.52,2667.56 1963.813,2668.543 1963.813,2669.872C1963.813,2671.202 1963.52,2672.231 1962.934,2672.962C1962.347,2673.692 1961.604,2674.057 1960.703,2674.057C1960.295,2674.057 1959.923,2674.036 1959.588,2673.994L1959.588,2676.863ZM1960.232,2668.729C1960.054,2668.729 1959.881,2668.787 1959.714,2668.903L1959.714,2671.693C1959.892,2671.714 1960.036,2671.724 1960.146,2671.724L1960.405,2671.724C1960.834,2671.682 1961.049,2671.131 1961.049,2670.069C1961.049,2669.176 1960.777,2668.729 1960.232,2668.729Z" fill="white"/>
</svg>
