<?xml version="1.0" encoding="UTF-8" standalone="no"?><!DOCTYPE svg PUBLIC "-//W3C//DTD SVG 1.1//EN" "http://www.w3.org/Graphics/SVG/1.1/DTD/svg11.dtd"><svg width="100%" height="100%" viewBox="0 0 432 68" version="1.1" xmlns="http://www.w3.org/2000/svg" xmlns:xlink="http://www.w3.org/1999/xlink" xml:space="preserve" xmlns:serif="http://www.serif.com/" style="fill-rule:evenodd;clip-rule:evenodd;stroke-linejoin:round;stroke-miterlimit:2;"><g id="Layer1"></g><g id="Layer2"><g><path d="M84.371,43.145c-1.93,-2.123 -2.894,-5.06 -2.894,-8.813c0,-3.753 0.965,-6.691 2.894,-8.813c1.93,-2.123 4.531,-3.184 7.804,-3.184c3.273,0 5.866,1.061 7.78,3.184c1.914,2.123 2.871,5.06 2.871,8.813c0,3.753 -0.957,6.691 -2.871,8.813c-1.914,2.123 -4.508,3.184 -7.78,3.184c-3.273,0 -5.874,-1.061 -7.804,-3.184Zm7.827,-13.105c-1.744,0 -2.617,1.415 -2.617,4.245c0,2.83 0.872,4.245 2.617,4.245c1.744,0 2.617,-1.415 2.617,-4.245c0,-2.83 -0.872,-4.245 -2.617,-4.245Z" style="fill:#f03e76;fill-rule:nonzero;"/><path d="M115.794,45.59c0,0.215 -1.111,0.323 -3.334,0.323c-3.087,-0.092 -4.631,-0.261 -4.631,-0.508l0,-14.95l-1.204,0c-0.803,0 -1.328,-0.677 -1.575,-2.03c-0.062,-0.4 -0.093,-0.8 -0.093,-1.2c0,-0.954 0.185,-1.907 0.556,-2.861c0.556,-1.354 1.42,-2.03 2.593,-2.03c1.173,0 2.223,0.277 3.149,0.831c0.926,0.554 1.544,1.107 1.852,1.661c1.945,-1.661 4.261,-2.492 6.947,-2.492c2.686,0 4.631,0.723 5.835,2.169c1.204,1.446 1.806,3.815 1.806,7.106l0,13.843c0,0.369 -1.32,0.554 -3.96,0.554c-2.64,0 -3.96,-0.185 -3.96,-0.554l0,-13.335c0,-1.538 -0.54,-2.307 -1.621,-2.307c-0.309,0 -0.741,0.131 -1.297,0.392c-0.556,0.261 -0.911,0.454 -1.065,0.577l0,14.812Z" style="fill:#f03e76;fill-rule:nonzero;"/><path d="M149.138,44.621c-1.945,1.138 -4.446,1.707 -7.503,1.707c-3.057,0 -5.635,-1.038 -7.734,-3.115c-2.099,-2.076 -3.149,-4.953 -3.149,-8.629c0,-3.676 1.011,-6.637 3.033,-8.883c2.022,-2.246 4.577,-3.368 7.665,-3.368c3.087,0 5.473,0.784 7.155,2.353c1.683,1.569 2.524,3.476 2.524,5.722c0,4.983 -2.871,7.475 -8.614,7.475l-3.196,0c0,0.923 0.255,1.561 0.764,1.915c0.509,0.354 1.258,0.531 2.246,0.531c2.161,0 4.214,-0.492 6.159,-1.477c0.031,-0.031 0.17,0.185 0.417,0.646c0.741,1.323 1.111,2.438 1.111,3.345c0,0.907 -0.293,1.5 -0.88,1.777Zm-5.789,-13.335c0,-1.292 -0.633,-1.938 -1.899,-1.938c-0.587,0 -1.088,0.177 -1.505,0.531c-0.417,0.354 -0.625,0.869 -0.625,1.546l0,1.43l2.501,0c1.019,0 1.528,-0.523 1.528,-1.569Z" style="fill:#f03e76;fill-rule:nonzero;"/><path d="M163.819,37.561c2.501,1.507 4.477,2.261 5.928,2.261c0.926,0 1.389,-0.323 1.389,-0.969c0,-0.461 -0.803,-1.061 -2.408,-1.8c-3.859,-1.569 -5.789,-4.138 -5.789,-7.706c0,-2.276 0.834,-4.014 2.501,-5.214c1.667,-1.2 3.666,-1.8 5.997,-1.8c2.331,0 4.307,0.246 5.928,0.738c1.621,0.492 2.431,1.138 2.431,1.938c0,0.677 -0.332,1.569 -0.996,2.676c-0.664,1.107 -1.119,1.707 -1.366,1.8c-1.328,-0.738 -2.763,-1.107 -4.307,-1.107c-0.834,0 -1.25,0.292 -1.25,0.877c0,0.369 0.162,0.684 0.486,0.946c0.324,0.261 0.919,0.584 1.783,0.969c0.864,0.385 1.582,0.731 2.153,1.038c0.571,0.308 1.212,0.738 1.922,1.292c1.482,1.169 2.223,2.692 2.223,4.568c0,2.461 -0.818,4.453 -2.455,5.976c-1.636,1.523 -4.106,2.284 -7.41,2.284c-2.192,0 -4.183,-0.369 -5.974,-1.107c-1.791,-0.738 -2.686,-1.753 -2.686,-3.045c0,-0.861 0.208,-1.769 0.625,-2.722c0.417,-0.954 0.841,-1.584 1.274,-1.892Z" style="fill:#f03e76;fill-rule:nonzero;"/><path d="M194.338,45.59c0,0.369 -1.297,0.554 -3.89,0.554c-3.087,-0.123 -4.631,-0.323 -4.631,-0.6l0,-16.335l-2.362,0c-0.617,0 -0.926,-1.061 -0.926,-3.184c0,-0.554 0.054,-1.23 0.162,-2.03c0.108,-0.8 0.332,-1.2 0.672,-1.2l2.455,0l0,-4.061c0,-0.615 1.304,-0.923 3.913,-0.923c2.609,0 3.913,0.246 3.913,0.738l0,2.953l0.046,1.292l3.937,0c0.525,0 0.787,1.077 0.787,3.23c0,2.153 -0.262,3.23 -0.787,3.23l-3.288,0l0,16.335Z" style="fill:#f03e76;fill-rule:nonzero;"/><path d="M202.744,43.145c-1.93,-2.123 -2.894,-5.06 -2.894,-8.813c0,-3.753 0.965,-6.691 2.894,-8.813c1.93,-2.123 4.531,-3.184 7.804,-3.184c3.273,0 5.866,1.061 7.78,3.184c1.914,2.123 2.871,5.06 2.871,8.813c0,3.753 -0.957,6.691 -2.871,8.813c-1.914,2.123 -4.508,3.184 -7.78,3.184c-3.273,0 -5.874,-1.061 -7.804,-3.184Zm7.827,-13.105c-1.744,0 -2.617,1.415 -2.617,4.245c0,2.83 0.872,4.245 2.617,4.245c1.744,0 2.617,-1.415 2.617,-4.245c0,-2.83 -0.872,-4.245 -2.617,-4.245Z" style="fill:#f03e76;fill-rule:nonzero;"/><path d="M234.444,54.265c0,0.215 -1.32,0.323 -3.96,0.323c-2.64,0 -3.96,-0.108 -3.96,-0.323l0,-23.764l-1.575,0c-0.741,0 -1.25,-0.677 -1.528,-2.03c-0.093,-0.431 -0.139,-0.984 -0.139,-1.661c0,-0.677 0.216,-1.477 0.648,-2.399c0.617,-1.354 1.605,-2.03 2.964,-2.03c0.895,0 1.721,0.208 2.478,0.623c0.756,0.415 1.281,0.8 1.575,1.154c0.293,0.354 0.44,0.561 0.44,0.623c2.069,-1.6 4.307,-2.399 6.715,-2.399c2.408,0 4.477,0.931 6.206,2.792c1.729,1.861 2.593,4.737 2.593,8.629c0,3.891 -0.864,6.906 -2.593,9.044c-1.729,2.138 -3.921,3.207 -6.576,3.207c-1.204,0 -2.3,-0.062 -3.288,-0.185l0,8.398Zm1.899,-23.81c-0.525,0 -1.034,0.169 -1.528,0.508l0,8.167c0.525,0.062 0.949,0.092 1.274,0.092l0.764,0c1.266,-0.123 1.899,-1.738 1.899,-4.845c0,-2.615 -0.803,-3.922 -2.408,-3.922Z" style="fill:#f03e76;fill-rule:nonzero;"/><path d="M270.604,13.751c0,-0.463 1.219,-0.694 3.656,-0.694c0.833,0 1.797,0.054 2.892,0.162c1.095,0.108 1.643,0.255 1.643,0.44l0,24.388l1.62,0c0.771,0 1.28,0.694 1.527,2.082c0.062,0.401 0.093,0.949 0.093,1.643c0,0.694 -0.216,1.535 -0.648,2.522c-0.617,1.357 -1.604,2.036 -2.962,2.036c-1.018,0 -1.921,-0.201 -2.707,-0.602c-0.787,-0.401 -1.319,-0.818 -1.597,-1.249l-0.416,-0.602c-1.697,1.635 -3.826,2.453 -6.386,2.453c-2.561,0 -4.751,-1.064 -6.571,-3.193c-1.82,-2.129 -2.73,-5.098 -2.73,-8.908c0,-3.81 0.956,-6.757 2.869,-8.839c1.913,-2.082 4.304,-3.124 7.173,-3.124c0.833,0 1.681,0.093 2.545,0.278l0,-8.793Zm-1.527,15.919c-1.728,0 -2.592,1.558 -2.592,4.674c0,1.573 0.247,2.707 0.74,3.401c0.494,0.694 1.041,1.041 1.643,1.041c0.602,0 1.18,-0.262 1.735,-0.787l0,-7.867c-0.524,-0.309 -1.034,-0.463 -1.527,-0.463Z" style="fill:none;fill-rule:nonzero;stroke:#f03e76;stroke-width:2.06px;"/><path d="M287.055,43.137c-1.928,-2.129 -2.892,-5.075 -2.892,-8.839c0,-3.764 0.964,-6.71 2.892,-8.839c1.928,-2.129 4.527,-3.193 7.798,-3.193c3.27,0 5.862,1.064 7.775,3.193c1.913,2.129 2.869,5.075 2.869,8.839c0,3.764 -0.956,6.71 -2.869,8.839c-1.913,2.129 -4.504,3.193 -7.775,3.193c-3.27,0 -5.87,-1.064 -7.798,-3.193Zm7.821,-13.143c-1.743,0 -2.615,1.419 -2.615,4.258c0,2.838 0.872,4.258 2.615,4.258c1.743,0 2.615,-1.419 2.615,-4.258c0,-2.838 -0.872,-4.258 -2.615,-4.258Z" style="fill:none;fill-rule:nonzero;stroke:#f03e76;stroke-width:2.06px;"/><path d="M317.298,45.867c-2.993,0 -5.306,-0.964 -6.942,-2.892c-1.635,-1.928 -2.453,-4.782 -2.453,-8.561c0,-3.779 1.072,-6.741 3.216,-8.885c2.144,-2.144 4.998,-3.216 8.561,-3.216c3.563,0 6.502,0.787 8.816,2.36l0,23.046c0,2.283 -0.926,4.034 -2.777,5.252c-1.851,1.219 -4.227,1.828 -7.127,1.828c-2.9,0 -5.492,-0.37 -7.775,-1.111c-0.309,-0.74 -0.463,-1.404 -0.463,-1.99c0,-1.975 0.324,-3.425 0.972,-4.35c2.067,0.895 4.273,1.342 6.618,1.342c1.697,0 2.545,-0.602 2.545,-1.805l0,-1.388c-1.327,0.247 -2.391,0.37 -3.193,0.37Zm2.129,-16.012c-2.067,0 -3.101,1.558 -3.101,4.674c0,1.944 0.401,3.209 1.203,3.795c0.524,0.401 1.049,0.602 1.573,0.602c0.524,0 0.987,-0.046 1.388,-0.139l0,-8.793c-0.37,-0.093 -0.725,-0.139 -1.064,-0.139Z" style="fill:none;fill-rule:nonzero;stroke:#f03e76;stroke-width:2.06px;"/><path d="M342.334,37.537c2.499,1.512 4.473,2.268 5.924,2.268c0.926,0 1.388,-0.324 1.388,-0.972c0,-0.463 -0.802,-1.064 -2.406,-1.805c-3.856,-1.573 -5.785,-4.15 -5.785,-7.728c0,-2.283 0.833,-4.026 2.499,-5.229c1.666,-1.203 3.664,-1.805 5.993,-1.805c2.329,0 4.304,0.247 5.924,0.74c1.62,0.494 2.43,1.142 2.43,1.944c0,0.679 -0.332,1.573 -0.995,2.684c-0.663,1.111 -1.118,1.712 -1.365,1.805c-1.327,-0.74 -2.761,-1.111 -4.304,-1.111c-0.833,0 -1.249,0.293 -1.249,0.879c0,0.37 0.162,0.686 0.486,0.949c0.324,0.262 0.918,0.586 1.782,0.972c0.864,0.386 1.581,0.733 2.152,1.041c0.571,0.309 1.211,0.74 1.921,1.296c1.481,1.172 2.221,2.7 2.221,4.581c0,2.468 -0.818,4.466 -2.453,5.993c-1.635,1.527 -4.103,2.291 -7.404,2.291c-2.19,0 -4.18,-0.37 -5.97,-1.111c-1.789,-0.74 -2.684,-1.759 -2.684,-3.054c0,-0.864 0.208,-1.774 0.625,-2.73c0.416,-0.956 0.841,-1.589 1.273,-1.897Z" style="fill:#f03e76;fill-rule:nonzero;"/><path d="M369.915,45.543c0,0.278 -1.288,0.416 -3.864,0.416c-2.576,0 -3.864,-0.216 -3.864,-0.648l0,-31.7c0,-0.216 0.478,-0.37 1.435,-0.463c0.956,-0.093 1.759,-0.139 2.406,-0.139c2.592,0 3.887,0.278 3.887,0.833l0,9.255c1.728,-0.524 3.039,-0.787 3.934,-0.787c2.345,0 4.196,0.625 5.553,1.874c1.357,1.249 2.036,3.571 2.036,6.965l0,14.346c0,0.278 -1.203,0.416 -3.61,0.416c-2.715,-0.093 -4.072,-0.247 -4.072,-0.463l0,-13.606c0,-1.512 -0.494,-2.268 -1.481,-2.268c-0.679,0 -1.465,0.324 -2.36,0.972l0,14.994Z" style="fill:#f03e76;fill-rule:nonzero;"/><path d="M387.385,43.137c-1.928,-2.129 -2.892,-5.075 -2.892,-8.839c0,-3.764 0.964,-6.71 2.892,-8.839c1.928,-2.129 4.527,-3.193 7.798,-3.193c3.27,0 5.862,1.064 7.775,3.193c1.913,2.129 2.869,5.075 2.869,8.839c0,3.764 -0.956,6.71 -2.869,8.839c-1.913,2.129 -4.504,3.193 -7.775,3.193c-3.27,0 -5.87,-1.064 -7.798,-3.193Zm7.821,-13.143c-1.743,0 -2.615,1.419 -2.615,4.258c0,2.838 0.872,4.258 2.615,4.258c1.743,0 2.615,-1.419 2.615,-4.258c0,-2.838 -0.872,-4.258 -2.615,-4.258Z" style="fill:#f03e76;fill-rule:nonzero;"/><path d="M419.062,54.29c0,0.216 -1.319,0.324 -3.957,0.324c-2.638,0 -3.957,-0.108 -3.957,-0.324l0,-23.833l-1.573,0c-0.74,0 -1.249,-0.679 -1.527,-2.036c-0.093,-0.432 -0.139,-0.987 -0.139,-1.666c0,-0.679 0.216,-1.481 0.648,-2.406c0.617,-1.357 1.604,-2.036 2.962,-2.036c0.895,0 1.72,0.208 2.476,0.625c0.756,0.416 1.28,0.802 1.573,1.157c0.293,0.355 0.44,0.563 0.44,0.625c2.067,-1.604 4.304,-2.406 6.71,-2.406c2.406,0 4.473,0.933 6.201,2.8c1.728,1.867 2.592,4.751 2.592,8.654c0,3.903 -0.864,6.926 -2.592,9.07c-1.728,2.144 -3.918,3.216 -6.571,3.216c-1.203,0 -2.298,-0.062 -3.286,-0.185l0,8.422Zm1.897,-23.879c-0.524,0 -1.034,0.17 -1.527,0.509l0,8.191c0.524,0.062 0.949,0.093 1.273,0.093l0.764,0c1.265,-0.123 1.897,-1.743 1.897,-4.859c0,-2.622 -0.802,-3.934 -2.406,-3.934Z" style="fill:#f03e76;fill-rule:nonzero;"/></g><g><path d="M1.973,49.57c-1.262,-1.262 -1.972,-2.975 -1.973,-4.76l0,-22.297c0,-1.785 0.71,-3.498 1.973,-4.76l15.78,-15.78c1.262,-1.262 2.975,-1.972 4.76,-1.973l22.297,0c1.785,0 3.498,0.71 4.76,1.973l15.78,15.78c1.262,1.262 1.972,2.975 1.973,4.76l0,22.297c-0,1.785 -0.71,3.498 -1.973,4.76l-15.78,15.78c-1.262,1.262 -2.975,1.972 -4.76,1.973l-22.297,0c-1.785,-0 -3.498,-0.71 -4.76,-1.973l-15.78,-15.78Z" style="fill:url(#_Linear1);fill-rule:nonzero;"/></g><g><circle cx="31.541" cy="16.752" r="4.228" style="fill:#fff;stroke:#fff;stroke-width:2.06px;stroke-linecap:round;stroke-miterlimit:4;"/><circle cx="46.338" cy="25.207" r="4.228" style="fill:#fff;stroke:#fff;stroke-width:2.06px;stroke-linecap:round;stroke-miterlimit:4;"/><circle cx="50.566" cy="42.118" r="4.228" style="fill:#fff;stroke:#fff;stroke-width:2.06px;stroke-linecap:round;stroke-miterlimit:4;"/><path d="M27.313,29.435c5.798,0 10.569,4.771 10.569,10.569l0,7.398c-0.001,4.058 -3.341,7.396 -7.398,7.396c-3.225,0 -6.096,-2.109 -7.06,-5.187c-0.902,-2.91 -2.804,-4.816 -5.707,-5.718c-3.078,-0.964 -5.187,-3.835 -5.187,-7.06c-0,-4.054 3.332,-7.391 7.386,-7.398l7.398,0Z" style="fill:#fff;fill-rule:nonzero;stroke:#fff;stroke-width:2.06px;stroke-linecap:round;stroke-miterlimit:4;"/></g></g><defs><linearGradient id="_Linear1" x1="0" y1="0" x2="1" y2="0" gradientUnits="userSpaceOnUse" gradientTransform="matrix(-25.737326,67.322835,-67.322835,-25.737326,47.549163,0)"><stop offset="0" style="stop-color:#ff98ba;stop-opacity:1"/><stop offset="0.31" style="stop-color:#f03e76;stop-opacity:1"/><stop offset="0.7" style="stop-color:#e5366d;stop-opacity:1"/><stop offset="0.86" style="stop-color:#cd265b;stop-opacity:1"/><stop offset="1" style="stop-color:#b7174a;stop-opacity:1"/></linearGradient></defs></svg>