<?xml version="1.0" encoding="UTF-8" standalone="no"?><!DOCTYPE svg PUBLIC "-//W3C//DTD SVG 1.1//EN" "http://www.w3.org/Graphics/SVG/1.1/DTD/svg11.dtd"><svg width="100%" height="100%" viewBox="0 0 68 68" version="1.1" xmlns="http://www.w3.org/2000/svg" xmlns:xlink="http://www.w3.org/1999/xlink" xml:space="preserve" xmlns:serif="http://www.serif.com/" style="fill-rule:evenodd;clip-rule:evenodd;stroke-linejoin:round;stroke-miterlimit:2;"><g id="Layer1"></g><g id="Layer2"><circle cx="33.577" cy="33.577" r="33.577" style="fill:url(#_Linear1);"/><path d="M43.051,55.14c0,0.681 -2.032,1.021 -6.095,1.021c-4.063,0 -6.095,-0.34 -6.095,-1.021l0,-29.602l-6.485,0.06c-1.201,0 -1.801,-1.921 -1.801,-5.764c0,-1.321 0.13,-2.602 0.39,-3.843c0.26,-1.241 0.711,-1.861 1.351,-1.861l16.452,0c0.681,0 1.231,0.15 1.651,0.45c0.42,0.3 0.63,0.67 0.63,1.111l0,39.449Z" style="fill:#fff;fill-rule:nonzero;"/></g><defs><linearGradient id="_Linear1" x1="0" y1="0" x2="1" y2="0" gradientUnits="userSpaceOnUse" gradientTransform="matrix(-23.440762,67.154549,-67.154549,-23.440762,48.465318,0)"><stop offset="0" style="stop-color:#ff7ca6;stop-opacity:1"/><stop offset="0.31" style="stop-color:#f03e76;stop-opacity:1"/><stop offset="1" style="stop-color:#8e1239;stop-opacity:1"/></linearGradient></defs></svg>