<?xml version="1.0" encoding="UTF-8" standalone="no"?><!DOCTYPE svg PUBLIC "-//W3C//DTD SVG 1.1//EN" "http://www.w3.org/Graphics/SVG/1.1/DTD/svg11.dtd"><svg width="100%" height="100%" viewBox="0 0 309 68" version="1.1" xmlns="http://www.w3.org/2000/svg" xmlns:xlink="http://www.w3.org/1999/xlink" xml:space="preserve" xmlns:serif="http://www.serif.com/" style="fill-rule:evenodd;clip-rule:evenodd;stroke-linecap:round;stroke-linejoin:round;"><g id="Layer1"></g><g id="Layer2"><g transform="matrix(1.910129,0,0,1.903184,-3556.817857,-5047.687381)"><g transform="matrix(15.71739,0,0,15.71739,1904.328769,2673.994208)"><path d="M0.088,-0.059c-0.042,-0.046 -0.062,-0.11 -0.062,-0.191c0,-0.081 0.021,-0.145 0.062,-0.191c0.042,-0.046 0.098,-0.069 0.169,-0.069c0.071,0 0.127,0.023 0.168,0.069c0.041,0.046 0.062,0.11 0.062,0.191c-0,0.081 -0.021,0.145 -0.062,0.191c-0.041,0.046 -0.097,0.069 -0.168,0.069c-0.071,0 -0.127,-0.023 -0.169,-0.069Zm0.169,-0.284c-0.038,0 -0.057,0.031 -0.056,0.092c-0,0.061 0.019,0.092 0.056,0.092c0.038,0 0.056,-0.031 0.056,-0.092c0,-0.061 -0.019,-0.092 -0.056,-0.092Z" style="fill:#f03e76;fill-rule:nonzero;"/></g><g transform="matrix(15.71739,0,0,15.71739,1912.39179,2673.994208)"><path d="M0.254,-0.006c0,0.005 -0.024,0.007 -0.072,0.007c-0.067,-0.002 -0.1,-0.006 -0.1,-0.011l0,-0.324l-0.026,0c-0.017,0 -0.029,-0.015 -0.034,-0.044c-0.001,-0.009 -0.002,-0.017 -0.002,-0.026c0,-0.021 0.004,-0.041 0.012,-0.062c0.012,-0.029 0.031,-0.044 0.056,-0.044c0.025,0 0.048,0.006 0.068,0.018c0.02,0.012 0.033,0.024 0.04,0.036c0.042,-0.036 0.092,-0.054 0.15,-0.054c0.058,0 0.1,0.016 0.126,0.047c0.026,0.031 0.039,0.083 0.039,0.154l0,0.3c0,0.008 -0.029,0.012 -0.086,0.012c-0.057,0 -0.085,-0.004 -0.085,-0.012l0,-0.289c0,-0.033 -0.012,-0.05 -0.035,-0.05c-0.007,0 -0.016,0.003 -0.028,0.009c-0.012,0.006 -0.02,0.01 -0.023,0.013l0,0.321Z" style="fill:#f03e76;fill-rule:nonzero;"/></g><g transform="matrix(15.71739,0,0,15.71739,1921.052072,2673.994208)"><path d="M0.423,-0.027c-0.042,0.025 -0.096,0.037 -0.162,0.037c-0.066,0 -0.122,-0.022 -0.167,-0.068c-0.045,-0.045 -0.068,-0.107 -0.068,-0.187c0,-0.08 0.022,-0.144 0.066,-0.193c0.044,-0.049 0.099,-0.073 0.166,-0.073c0.067,0 0.118,0.017 0.155,0.051c0.036,0.034 0.054,0.075 0.054,0.124c0,0.108 -0.062,0.162 -0.186,0.162l-0.069,0c0,0.02 0.006,0.034 0.017,0.042c0.011,0.008 0.027,0.012 0.049,0.012c0.047,0 0.091,-0.011 0.133,-0.032c0.001,-0.001 0.004,0.004 0.009,0.014c0.016,0.029 0.024,0.053 0.024,0.073c0,0.02 -0.006,0.033 -0.019,0.039Zm-0.125,-0.289c0,-0.028 -0.014,-0.042 -0.041,-0.042c-0.013,0 -0.023,0.004 -0.033,0.011c-0.009,0.008 -0.014,0.019 -0.014,0.034l0,0.031l0.054,0c0.022,0 0.033,-0.011 0.033,-0.034Z" style="fill:#f03e76;fill-rule:nonzero;"/></g><g transform="matrix(15.71739,0,0,15.71739,1931.645593,2673.994208)"><path d="M0.066,-0.18c0.054,0.033 0.097,0.049 0.128,0.049c0.02,0 0.03,-0.007 0.03,-0.021c0,-0.01 -0.017,-0.023 -0.052,-0.039c-0.083,-0.034 -0.125,-0.09 -0.125,-0.167c-0,-0.049 0.018,-0.087 0.054,-0.113c0.036,-0.026 0.079,-0.039 0.13,-0.039c0.05,0 0.093,0.005 0.128,0.016c0.035,0.011 0.053,0.025 0.053,0.042c0,0.015 -0.007,0.034 -0.022,0.058c-0.014,0.024 -0.024,0.037 -0.03,0.039c-0.029,-0.016 -0.06,-0.024 -0.093,-0.024c-0.018,0 -0.027,0.006 -0.027,0.019c0,0.008 0.003,0.015 0.011,0.02c0.007,0.006 0.02,0.013 0.038,0.021c0.019,0.008 0.034,0.016 0.047,0.023c0.012,0.007 0.026,0.016 0.041,0.028c0.032,0.025 0.048,0.058 0.048,0.099c0,0.053 -0.018,0.097 -0.053,0.13c-0.035,0.033 -0.089,0.05 -0.16,0.05c-0.047,-0 -0.09,-0.008 -0.129,-0.024c-0.039,-0.016 -0.058,-0.038 -0.058,-0.066c0,-0.019 0.004,-0.038 0.013,-0.059c0.009,-0.021 0.018,-0.034 0.028,-0.041Z" style="fill:#f03e76;fill-rule:nonzero;"/></g><g transform="matrix(15.71739,0,0,15.71739,1938.718418,2673.994208)"><path d="M0.275,-0.006c0,0.008 -0.028,0.012 -0.084,0.012c-0.067,-0.003 -0.1,-0.007 -0.1,-0.013l0,-0.354l-0.051,0c-0.013,0 -0.02,-0.023 -0.02,-0.069c0,-0.012 0.001,-0.027 0.003,-0.044c0.002,-0.017 0.007,-0.026 0.014,-0.026l0.053,0l0,-0.088c0,-0.013 0.028,-0.02 0.085,-0.02c0.056,0 0.084,0.005 0.084,0.016l0,0.064l0.001,0.028l0.085,0c0.011,0 0.017,0.023 0.017,0.07c0,0.047 -0.006,0.07 -0.017,0.07l-0.071,0l0,0.354Z" style="fill:#f03e76;fill-rule:nonzero;"/></g><g transform="matrix(15.71739,0,0,15.71739,1944.502418,2673.994208)"><path d="M0.088,-0.059c-0.042,-0.046 -0.062,-0.11 -0.062,-0.191c0,-0.081 0.021,-0.145 0.062,-0.191c0.042,-0.046 0.098,-0.069 0.169,-0.069c0.071,0 0.127,0.023 0.168,0.069c0.041,0.046 0.062,0.11 0.062,0.191c-0,0.081 -0.021,0.145 -0.062,0.191c-0.041,0.046 -0.097,0.069 -0.168,0.069c-0.071,0 -0.127,-0.023 -0.169,-0.069Zm0.169,-0.284c-0.038,0 -0.057,0.031 -0.056,0.092c-0,0.061 0.019,0.092 0.056,0.092c0.038,0 0.056,-0.031 0.056,-0.092c0,-0.061 -0.019,-0.092 -0.056,-0.092Z" style="fill:#f03e76;fill-rule:nonzero;"/></g><g transform="matrix(15.71739,0,0,15.71739,1952.565439,2673.994208)"><path d="M0.26,0.182c0,0.005 -0.028,0.007 -0.085,0.007c-0.057,-0 -0.086,-0.002 -0.086,-0.007l0,-0.515l-0.034,0c-0.016,0 -0.027,-0.015 -0.033,-0.044c-0.002,-0.009 -0.003,-0.021 -0.003,-0.036c0,-0.015 0.005,-0.032 0.014,-0.052c0.013,-0.029 0.035,-0.044 0.064,-0.044c0.019,0 0.037,0.004 0.053,0.014c0.016,0.009 0.028,0.017 0.034,0.025c0.006,0.008 0.01,0.012 0.01,0.014c0.045,-0.035 0.093,-0.052 0.145,-0.052c0.052,0 0.097,0.02 0.134,0.06c0.037,0.04 0.056,0.103 0.056,0.187c0,0.084 -0.019,0.15 -0.056,0.196c-0.037,0.046 -0.085,0.07 -0.142,0.07c-0.026,-0 -0.05,-0.001 -0.071,-0.004l0,0.182Zm0.041,-0.516c-0.011,0 -0.022,0.004 -0.033,0.011l0,0.177c0.011,0.001 0.021,0.002 0.027,0.002l0.017,0c0.027,-0.003 0.041,-0.038 0.041,-0.105c0,-0.057 -0.017,-0.085 -0.052,-0.085Z" style="fill:#f03e76;fill-rule:nonzero;"/></g><g transform="matrix(15.705745,0,0,15.763056,1964.243459,2673.994208)"><path d="M0.298,-0.694c0,-0.01 0.026,-0.015 0.079,-0.015c0.018,0 0.039,0.001 0.062,0.003c0.024,0.002 0.036,0.005 0.036,0.009l0,0.527l0.035,0c0.017,0 0.028,0.015 0.033,0.045c0.001,0.009 0.002,0.021 0.002,0.036c0,0.015 -0.005,0.033 -0.014,0.054c-0.013,0.029 -0.035,0.044 -0.064,0.044c-0.022,-0 -0.042,-0.004 -0.058,-0.013c-0.017,-0.009 -0.028,-0.018 -0.035,-0.027l-0.009,-0.013c-0.037,0.035 -0.083,0.053 -0.138,0.053c-0.055,-0 -0.103,-0.023 -0.142,-0.069c-0.039,-0.046 -0.059,-0.11 -0.059,-0.193c0,-0.082 0.021,-0.146 0.062,-0.191c0.041,-0.045 0.093,-0.068 0.155,-0.068c0.018,0 0.036,0.002 0.055,0.006l0,-0.19Zm-0.033,0.344c-0.037,0 -0.056,0.034 -0.056,0.101c0,0.034 0.005,0.058 0.016,0.073c0.011,0.015 0.022,0.023 0.036,0.023c0.013,0 0.026,-0.006 0.037,-0.017l0,-0.17c-0.011,-0.007 -0.022,-0.01 -0.033,-0.01Z" style="fill:#f03e76;fill-rule:nonzero;"/></g><g transform="matrix(15.705745,0,0,15.763056,1973.117205,2673.994208)"><path d="M0.088,-0.059c-0.042,-0.046 -0.062,-0.11 -0.062,-0.191c0,-0.081 0.021,-0.145 0.062,-0.191c0.042,-0.046 0.098,-0.069 0.169,-0.069c0.071,0 0.127,0.023 0.168,0.069c0.041,0.046 0.062,0.11 0.062,0.191c-0,0.081 -0.021,0.145 -0.062,0.191c-0.041,0.046 -0.097,0.069 -0.168,0.069c-0.071,0 -0.127,-0.023 -0.169,-0.069Zm0.169,-0.284c-0.038,0 -0.057,0.031 -0.056,0.092c-0,0.061 0.019,0.092 0.056,0.092c0.038,0 0.056,-0.031 0.056,-0.092c0,-0.061 -0.019,-0.092 -0.056,-0.092Z" style="fill:#f03e76;fill-rule:nonzero;"/></g><g transform="matrix(15.705745,0,0,15.763056,1981.174252,2673.994208)"><path d="M0.229,-0c-0.065,-0 -0.115,-0.021 -0.15,-0.062c-0.035,-0.042 -0.053,-0.103 -0.053,-0.185c0,-0.082 0.023,-0.146 0.07,-0.192c0.046,-0.046 0.108,-0.07 0.185,-0.07c0.077,0 0.141,0.017 0.191,0.051l0,0.498c0,0.049 -0.02,0.087 -0.06,0.114c-0.04,0.026 -0.091,0.039 -0.154,0.04c-0.063,-0 -0.119,-0.008 -0.168,-0.024c-0.007,-0.016 -0.01,-0.03 -0.01,-0.043c0,-0.043 0.007,-0.074 0.021,-0.094c0.045,0.019 0.092,0.029 0.143,0.029c0.037,0 0.055,-0.013 0.055,-0.039l0,-0.03c-0.029,0.005 -0.052,0.008 -0.069,0.008Zm0.046,-0.346c-0.045,0 -0.067,0.034 -0.067,0.101c0,0.042 0.009,0.069 0.026,0.082c0.011,0.009 0.023,0.013 0.034,0.013c0.011,0 0.021,-0.001 0.03,-0.003l0,-0.19c-0.008,-0.002 -0.016,-0.003 -0.023,-0.003Z" style="fill:#f03e76;fill-rule:nonzero;"/></g><g transform="matrix(15.705745,0,0,15.763056,1992.231096,2673.994208)"><path d="M0.066,-0.18c0.054,0.033 0.097,0.049 0.128,0.049c0.02,0 0.03,-0.007 0.03,-0.021c0,-0.01 -0.017,-0.023 -0.052,-0.039c-0.083,-0.034 -0.125,-0.09 -0.125,-0.167c-0,-0.049 0.018,-0.087 0.054,-0.113c0.036,-0.026 0.079,-0.039 0.13,-0.039c0.05,0 0.093,0.005 0.128,0.016c0.035,0.011 0.053,0.025 0.053,0.042c0,0.015 -0.007,0.034 -0.022,0.058c-0.014,0.024 -0.024,0.037 -0.03,0.039c-0.029,-0.016 -0.06,-0.024 -0.093,-0.024c-0.018,0 -0.027,0.006 -0.027,0.019c0,0.008 0.003,0.015 0.011,0.02c0.007,0.006 0.02,0.013 0.038,0.021c0.019,0.008 0.034,0.016 0.047,0.023c0.012,0.007 0.026,0.016 0.041,0.028c0.032,0.025 0.048,0.058 0.048,0.099c0,0.053 -0.018,0.097 -0.053,0.13c-0.035,0.033 -0.089,0.05 -0.16,0.05c-0.047,-0 -0.09,-0.008 -0.129,-0.024c-0.039,-0.016 -0.058,-0.038 -0.058,-0.066c0,-0.019 0.004,-0.038 0.013,-0.059c0.009,-0.021 0.018,-0.034 0.028,-0.041Z" style="fill:#f03e76;fill-rule:nonzero;"/></g><g transform="matrix(15.705745,0,0,15.763056,1999.298681,2673.994208)"><path d="M0.212,-0.007c0,0.006 -0.028,0.009 -0.083,0.009c-0.056,-0 -0.083,-0.005 -0.084,-0.014l0,-0.685c0,-0.005 0.01,-0.008 0.031,-0.01c0.021,-0.002 0.038,-0.003 0.052,-0.003c0.056,0 0.084,0.006 0.084,0.018l0,0.2c0.037,-0.011 0.066,-0.017 0.085,-0.017c0.051,0 0.091,0.014 0.12,0.04c0.029,0.027 0.044,0.077 0.044,0.151l0,0.31c0,0.006 -0.026,0.009 -0.078,0.009c-0.059,-0.002 -0.088,-0.005 -0.088,-0.01l0,-0.294c0,-0.033 -0.011,-0.049 -0.032,-0.049c-0.015,-0 -0.032,0.007 -0.051,0.021l0,0.324Z" style="fill:#f03e76;fill-rule:nonzero;"/></g><g transform="matrix(15.705745,0,0,15.763056,2007.167259,2673.994208)"><path d="M0.088,-0.059c-0.042,-0.046 -0.062,-0.11 -0.062,-0.191c0,-0.081 0.021,-0.145 0.062,-0.191c0.042,-0.046 0.098,-0.069 0.169,-0.069c0.071,0 0.127,0.023 0.168,0.069c0.041,0.046 0.062,0.11 0.062,0.191c-0,0.081 -0.021,0.145 -0.062,0.191c-0.041,0.046 -0.097,0.069 -0.168,0.069c-0.071,0 -0.127,-0.023 -0.169,-0.069Zm0.169,-0.284c-0.038,0 -0.057,0.031 -0.056,0.092c-0,0.061 0.019,0.092 0.056,0.092c0.038,0 0.056,-0.031 0.056,-0.092c0,-0.061 -0.019,-0.092 -0.056,-0.092Z" style="fill:#f03e76;fill-rule:nonzero;"/></g><g transform="matrix(15.705745,0,0,15.763056,2015.224306,2673.994208)"><path d="M0.26,0.182c0,0.005 -0.028,0.007 -0.085,0.007c-0.057,-0 -0.086,-0.002 -0.086,-0.007l0,-0.515l-0.034,0c-0.016,0 -0.027,-0.015 -0.033,-0.044c-0.002,-0.009 -0.003,-0.021 -0.003,-0.036c0,-0.015 0.005,-0.032 0.014,-0.052c0.013,-0.029 0.035,-0.044 0.064,-0.044c0.019,0 0.037,0.004 0.053,0.014c0.016,0.009 0.028,0.017 0.034,0.025c0.006,0.008 0.01,0.012 0.01,0.014c0.045,-0.035 0.093,-0.052 0.145,-0.052c0.052,0 0.097,0.02 0.134,0.06c0.037,0.04 0.056,0.103 0.056,0.187c0,0.084 -0.019,0.15 -0.056,0.196c-0.037,0.046 -0.085,0.07 -0.142,0.07c-0.026,-0 -0.05,-0.001 -0.071,-0.004l0,0.182Zm0.041,-0.516c-0.011,0 -0.022,0.004 -0.033,0.011l0,0.177c0.011,0.001 0.021,0.002 0.027,0.002l0.017,0c0.027,-0.003 0.041,-0.038 0.041,-0.105c0,-0.057 -0.017,-0.085 -0.052,-0.085Z" style="fill:#f03e76;fill-rule:nonzero;"/></g></g><g><path d="M1.973,49.57c-1.262,-1.262 -1.972,-2.975 -1.973,-4.76l0,-22.297c0,-1.785 0.71,-3.498 1.973,-4.76l15.78,-15.78c1.262,-1.262 2.975,-1.972 4.76,-1.973l22.297,0c1.785,0 3.498,0.71 4.76,1.973l15.78,15.78c1.262,1.262 1.972,2.975 1.973,4.76l0,22.297c-0,1.785 -0.71,3.498 -1.973,4.76l-15.78,15.78c-1.262,1.262 -2.975,1.972 -4.76,1.973l-22.297,0c-1.785,-0 -3.498,-0.71 -4.76,-1.973l-15.78,-15.78Z" style="fill:url(#_Linear1);fill-rule:nonzero;"/></g><g><circle cx="31.541" cy="16.752" r="4.228" style="fill:#fff;stroke:#fff;stroke-width:2.06px;"/><circle cx="46.338" cy="25.207" r="4.228" style="fill:#fff;stroke:#fff;stroke-width:2.06px;"/><circle cx="50.566" cy="42.118" r="4.228" style="fill:#fff;stroke:#fff;stroke-width:2.06px;"/><path d="M27.313,29.435c5.798,0 10.569,4.771 10.569,10.569l0,7.398c-0.001,4.058 -3.341,7.396 -7.398,7.396c-3.225,0 -6.096,-2.109 -7.06,-5.187c-0.902,-2.91 -2.804,-4.816 -5.707,-5.718c-3.078,-0.964 -5.187,-3.835 -5.187,-7.06c-0,-4.054 3.332,-7.391 7.386,-7.398l7.398,0Z" style="fill:#fff;fill-rule:nonzero;stroke:#fff;stroke-width:2.06px;"/></g></g><defs><linearGradient id="_Linear1" x1="0" y1="0" x2="1" y2="0" gradientUnits="userSpaceOnUse" gradientTransform="matrix(-25.737326,67.322835,-67.322835,-25.737326,47.549163,0)"><stop offset="0" style="stop-color:#ff98ba;stop-opacity:1"/><stop offset="0.31" style="stop-color:#f03e76;stop-opacity:1"/><stop offset="0.7" style="stop-color:#e5366d;stop-opacity:1"/><stop offset="0.86" style="stop-color:#cd265b;stop-opacity:1"/><stop offset="1" style="stop-color:#b7174a;stop-opacity:1"/></linearGradient></defs></svg>