<?xml version="1.0" encoding="UTF-8" standalone="no"?>
<!DOCTYPE svg PUBLIC "-//W3C//DTD SVG 1.1//EN" "http://www.w3.org/Graphics/SVG/1.1/DTD/svg11.dtd">
<svg width="100%" height="100%" viewBox="0 0 431 68" version="1.1" xmlns="http://www.w3.org/2000/svg" xmlns:xlink="http://www.w3.org/1999/xlink" xml:space="preserve" xmlns:serif="http://www.serif.com/" style="fill-rule:evenodd;clip-rule:evenodd;stroke-linejoin:round;stroke-miterlimit:2;">
    <g transform="matrix(1,0,0,1,-1780.731866,-2739.499538)">
        <g transform="matrix(1,0,0,1,0,112.769033)">
            <circle cx="1814.309" cy="2660.308" r="33.577" style="fill:url(#_Linear1);"/>
        </g>
        <g transform="matrix(1.20089,0,0,1.20089,-431.959772,-43.841099)">
            <path d="M1878.393,2363.648C1878.393,2364.214 1876.701,2364.498 1873.318,2364.498C1869.935,2364.498 1868.243,2364.214 1868.243,2363.648L1868.243,2338.998L1862.843,2339.048C1861.843,2339.048 1861.343,2337.448 1861.343,2334.248C1861.343,2333.148 1861.451,2332.081 1861.668,2331.048C1861.885,2330.014 1862.26,2329.498 1862.793,2329.498L1876.493,2329.498C1877.06,2329.498 1877.518,2329.623 1877.868,2329.873C1878.218,2330.123 1878.393,2330.431 1878.393,2330.798L1878.393,2363.648Z" style="fill:white;fill-rule:nonzero;"/>
        </g>
        <g transform="matrix(3.820258,0,0,3.806369,-5472.620386,-7382.547676)">
            <path d="M1920.611,2671.157C1921.459,2671.672 1922.129,2671.929 1922.622,2671.929C1922.936,2671.929 1923.093,2671.819 1923.093,2671.598C1923.093,2671.441 1922.82,2671.236 1922.276,2670.983C1920.967,2670.448 1920.313,2669.57 1920.313,2668.351C1920.313,2667.573 1920.596,2666.98 1921.161,2666.57C1921.726,2666.16 1922.404,2665.955 1923.195,2665.955C1923.985,2665.955 1924.655,2666.039 1925.205,2666.207C1925.755,2666.375 1926.03,2666.596 1926.03,2666.869C1926.03,2667.1 1925.917,2667.405 1925.692,2667.784C1925.467,2668.162 1925.312,2668.367 1925.229,2668.398C1924.778,2668.146 1924.292,2668.02 1923.768,2668.02C1923.485,2668.02 1923.344,2668.12 1923.344,2668.32C1923.344,2668.446 1923.399,2668.553 1923.509,2668.643C1923.619,2668.732 1923.82,2668.842 1924.114,2668.974C1924.407,2669.105 1924.65,2669.223 1924.844,2669.328C1925.038,2669.433 1925.255,2669.581 1925.496,2669.77C1925.998,2670.169 1926.25,2670.689 1926.25,2671.33C1926.25,2672.171 1925.972,2672.851 1925.417,2673.372C1924.862,2673.892 1924.025,2674.152 1922.904,2674.152C1922.161,2674.152 1921.486,2674.026 1920.878,2673.774C1920.271,2673.521 1919.967,2673.175 1919.967,2672.733C1919.967,2672.439 1920.038,2672.129 1920.179,2671.803C1920.321,2671.477 1920.465,2671.262 1920.611,2671.157Z" style="fill:url(#_Linear2);fill-rule:nonzero;"/>
        </g>
        <g transform="matrix(3.820258,0,0,3.806369,-5472.620386,-7382.547676)">
            <path d="M1930.961,2673.9C1930.961,2674.026 1930.522,2674.089 1929.642,2674.089C1928.595,2674.047 1928.071,2673.978 1928.071,2673.884L1928.071,2668.304L1927.27,2668.304C1927.061,2668.304 1926.956,2667.941 1926.956,2667.216C1926.956,2667.027 1926.975,2666.796 1927.011,2666.523C1927.048,2666.249 1927.124,2666.113 1927.239,2666.113L1928.071,2666.113L1928.071,2664.726C1928.071,2664.515 1928.514,2664.41 1929.399,2664.41C1930.283,2664.41 1930.726,2664.494 1930.726,2664.662L1930.726,2665.671L1930.741,2666.113L1932.076,2666.113C1932.254,2666.113 1932.343,2666.48 1932.343,2667.216C1932.343,2667.952 1932.254,2668.32 1932.076,2668.32L1930.961,2668.32L1930.961,2673.9Z" style="fill:url(#_Linear3);fill-rule:nonzero;"/>
        </g>
        <g transform="matrix(3.820258,0,0,3.806369,-5472.620386,-7382.547676)">
            <path d="M1933.812,2673.064C1933.157,2672.339 1932.83,2671.336 1932.83,2670.053C1932.83,2668.771 1933.157,2667.768 1933.812,2667.043C1934.466,2666.318 1935.348,2665.955 1936.458,2665.955C1937.568,2665.955 1938.448,2666.318 1939.097,2667.043C1939.746,2667.768 1940.071,2668.771 1940.071,2670.053C1940.071,2671.336 1939.746,2672.339 1939.097,2673.064C1938.448,2673.789 1937.568,2674.152 1936.458,2674.152C1935.348,2674.152 1934.466,2673.789 1933.812,2673.064ZM1936.466,2668.587C1935.875,2668.587 1935.579,2669.071 1935.579,2670.038C1935.579,2671.004 1935.875,2671.488 1936.466,2671.488C1937.058,2671.488 1937.354,2671.004 1937.354,2670.038C1937.354,2669.071 1937.058,2668.587 1936.466,2668.587Z" style="fill:url(#_Linear4);fill-rule:nonzero;"/>
        </g>
        <g transform="matrix(3.820258,0,0,3.806369,-5472.620386,-7382.547676)">
            <path d="M1944.562,2676.863C1944.562,2676.937 1944.115,2676.973 1943.22,2676.973C1942.324,2676.973 1941.877,2676.937 1941.877,2676.863L1941.877,2668.745L1941.343,2668.745C1941.092,2668.745 1940.919,2668.514 1940.825,2668.052C1940.793,2667.904 1940.777,2667.715 1940.777,2667.484C1940.777,2667.253 1940.851,2666.98 1940.997,2666.664C1941.207,2666.202 1941.542,2665.971 1942.002,2665.971C1942.306,2665.971 1942.586,2666.042 1942.843,2666.184C1943.099,2666.325 1943.277,2666.457 1943.377,2666.578C1943.476,2666.699 1943.526,2666.769 1943.526,2666.79C1944.227,2666.244 1944.987,2665.971 1945.803,2665.971C1946.62,2665.971 1947.321,2666.289 1947.908,2666.924C1948.494,2667.56 1948.787,2668.543 1948.787,2669.872C1948.787,2671.202 1948.494,2672.231 1947.908,2672.962C1947.321,2673.692 1946.578,2674.057 1945.678,2674.057C1945.269,2674.057 1944.898,2674.036 1944.562,2673.994L1944.562,2676.863ZM1945.206,2668.729C1945.028,2668.729 1944.856,2668.787 1944.688,2668.903L1944.688,2671.693C1944.866,2671.714 1945.01,2671.724 1945.12,2671.724L1945.379,2671.724C1945.808,2671.682 1946.023,2671.131 1946.023,2670.069C1946.023,2669.176 1945.751,2668.729 1945.206,2668.729Z" style="fill:url(#_Linear5);fill-rule:nonzero;"/>
        </g>
        <g transform="matrix(3.820258,0,0,3.806369,-5472.620386,-7382.547676)">
            <path d="M1956.829,2663.055C1956.829,2662.897 1957.242,2662.818 1958.069,2662.818C1958.352,2662.818 1958.679,2662.837 1959.051,2662.873C1959.423,2662.91 1959.609,2662.96 1959.609,2663.023L1959.609,2671.33L1960.158,2671.33C1960.42,2671.33 1960.593,2671.567 1960.677,2672.04C1960.698,2672.176 1960.708,2672.363 1960.708,2672.599C1960.708,2672.836 1960.635,2673.122 1960.488,2673.458C1960.279,2673.921 1959.944,2674.152 1959.483,2674.152C1959.137,2674.152 1958.831,2674.084 1958.564,2673.947C1958.297,2673.81 1958.117,2673.668 1958.022,2673.521L1957.881,2673.316C1957.305,2673.873 1956.583,2674.152 1955.714,2674.152C1954.845,2674.152 1954.101,2673.789 1953.483,2673.064C1952.866,2672.339 1952.557,2671.328 1952.557,2670.03C1952.557,2668.732 1952.881,2667.728 1953.53,2667.019C1954.18,2666.31 1954.991,2665.955 1955.965,2665.955C1956.248,2665.955 1956.535,2665.987 1956.829,2666.05L1956.829,2663.055ZM1956.31,2668.477C1955.724,2668.477 1955.431,2669.008 1955.431,2670.069C1955.431,2670.605 1955.515,2670.991 1955.682,2671.228C1955.85,2671.464 1956.036,2671.582 1956.24,2671.582C1956.444,2671.582 1956.64,2671.493 1956.829,2671.314L1956.829,2668.635C1956.651,2668.53 1956.478,2668.477 1956.31,2668.477Z" style="fill:url(#_Linear6);fill-rule:nonzero;"/>
        </g>
        <g transform="matrix(3.820258,0,0,3.806369,-5472.620386,-7382.547676)">
            <path d="M1962.412,2673.064C1961.758,2672.339 1961.43,2671.336 1961.43,2670.053C1961.43,2668.771 1961.758,2667.768 1962.412,2667.043C1963.066,2666.318 1963.949,2665.955 1965.058,2665.955C1966.168,2665.955 1967.048,2666.318 1967.697,2667.043C1968.346,2667.768 1968.671,2668.771 1968.671,2670.053C1968.671,2671.336 1968.346,2672.339 1967.697,2673.064C1967.048,2673.789 1966.168,2674.152 1965.058,2674.152C1963.949,2674.152 1963.066,2673.789 1962.412,2673.064ZM1965.066,2668.587C1964.475,2668.587 1964.179,2669.071 1964.179,2670.038C1964.179,2671.004 1964.475,2671.488 1965.066,2671.488C1965.658,2671.488 1965.954,2671.004 1965.954,2670.038C1965.954,2669.071 1965.658,2668.587 1965.066,2668.587Z" style="fill:url(#_Linear7);fill-rule:nonzero;"/>
        </g>
        <g transform="matrix(3.820258,0,0,3.806369,-5472.620386,-7382.547676)">
            <path d="M1972.676,2673.994C1971.66,2673.994 1970.875,2673.666 1970.32,2673.009C1969.765,2672.352 1969.487,2671.38 1969.487,2670.093C1969.487,2668.806 1969.851,2667.797 1970.579,2667.066C1971.307,2666.336 1972.275,2665.971 1973.485,2665.971C1974.694,2665.971 1975.691,2666.239 1976.477,2666.775L1976.477,2674.625C1976.477,2675.402 1976.162,2675.999 1975.534,2676.414C1974.906,2676.829 1974.1,2677.036 1973.116,2677.036C1972.131,2677.036 1971.252,2676.91 1970.477,2676.658C1970.372,2676.406 1970.32,2676.18 1970.32,2675.98C1970.32,2675.308 1970.43,2674.814 1970.65,2674.499C1971.351,2674.803 1972.1,2674.956 1972.896,2674.956C1973.472,2674.956 1973.759,2674.751 1973.759,2674.341L1973.759,2673.868C1973.309,2673.952 1972.948,2673.994 1972.676,2673.994ZM1973.398,2668.54C1972.697,2668.54 1972.346,2669.071 1972.346,2670.132C1972.346,2670.794 1972.482,2671.225 1972.754,2671.425C1972.932,2671.561 1973.11,2671.63 1973.288,2671.63C1973.466,2671.63 1973.623,2671.614 1973.759,2671.582L1973.759,2668.587C1973.634,2668.556 1973.513,2668.54 1973.398,2668.54Z" style="fill:url(#_Linear8);fill-rule:nonzero;"/>
        </g>
        <g transform="matrix(3.820258,0,0,3.806369,-5472.620386,-7382.547676)">
            <path d="M1981.173,2671.157C1982.021,2671.672 1982.691,2671.929 1983.183,2671.929C1983.497,2671.929 1983.654,2671.819 1983.654,2671.598C1983.654,2671.441 1983.382,2671.236 1982.837,2670.983C1981.529,2670.448 1980.874,2669.57 1980.874,2668.351C1980.874,2667.573 1981.157,2666.98 1981.722,2666.57C1982.288,2666.16 1982.966,2665.955 1983.756,2665.955C1984.547,2665.955 1985.217,2666.039 1985.766,2666.207C1986.316,2666.375 1986.591,2666.596 1986.591,2666.869C1986.591,2667.1 1986.478,2667.405 1986.253,2667.784C1986.028,2668.162 1985.874,2668.367 1985.79,2668.398C1985.34,2668.146 1984.853,2668.02 1984.329,2668.02C1984.047,2668.02 1983.905,2668.12 1983.905,2668.32C1983.905,2668.446 1983.96,2668.553 1984.07,2668.643C1984.18,2668.732 1984.382,2668.842 1984.675,2668.974C1984.968,2669.105 1985.212,2669.223 1985.405,2669.328C1985.599,2669.433 1985.816,2669.581 1986.057,2669.77C1986.56,2670.169 1986.811,2670.689 1986.811,2671.33C1986.811,2672.171 1986.533,2672.851 1985.979,2673.372C1985.424,2673.892 1984.586,2674.152 1983.466,2674.152C1982.722,2674.152 1982.047,2674.026 1981.44,2673.774C1980.832,2673.521 1980.529,2673.175 1980.529,2672.733C1980.529,2672.439 1980.599,2672.129 1980.741,2671.803C1980.882,2671.477 1981.026,2671.262 1981.173,2671.157Z" style="fill:url(#_Linear9);fill-rule:nonzero;"/>
        </g>
        <g transform="matrix(3.820258,0,0,3.806369,-5472.620386,-7382.547676)">
            <path d="M1990.533,2673.884C1990.533,2673.978 1990.096,2674.026 1989.222,2674.026C1988.347,2674.026 1987.91,2673.952 1987.91,2673.805L1987.91,2663.007C1987.91,2662.934 1988.073,2662.881 1988.397,2662.85C1988.722,2662.818 1988.994,2662.802 1989.214,2662.802C1990.093,2662.802 1990.533,2662.897 1990.533,2663.086L1990.533,2666.239C1991.12,2666.06 1991.565,2665.971 1991.868,2665.971C1992.664,2665.971 1993.292,2666.184 1993.753,2666.609C1994.214,2667.035 1994.444,2667.826 1994.444,2668.982L1994.444,2673.868C1994.444,2673.963 1994.036,2674.01 1993.219,2674.01C1992.297,2673.978 1991.837,2673.926 1991.837,2673.852L1991.837,2669.218C1991.837,2668.703 1991.669,2668.446 1991.334,2668.446C1991.104,2668.446 1990.837,2668.556 1990.533,2668.777L1990.533,2673.884Z" style="fill:url(#_Linear10);fill-rule:nonzero;"/>
        </g>
        <g transform="matrix(3.820258,0,0,3.806369,-5472.620386,-7382.547676)">
            <path d="M1996.462,2673.064C1995.808,2672.339 1995.481,2671.336 1995.481,2670.053C1995.481,2668.771 1995.808,2667.768 1996.462,2667.043C1997.117,2666.318 1997.999,2665.955 1999.109,2665.955C2000.218,2665.955 2001.098,2666.318 2001.747,2667.043C2002.396,2667.768 2002.721,2668.771 2002.721,2670.053C2002.721,2671.336 2002.396,2672.339 2001.747,2673.064C2001.098,2673.789 2000.218,2674.152 1999.109,2674.152C1997.999,2674.152 1997.117,2673.789 1996.462,2673.064ZM1999.116,2668.587C1998.525,2668.587 1998.229,2669.071 1998.229,2670.038C1998.229,2671.004 1998.525,2671.488 1999.116,2671.488C1999.708,2671.488 2000.004,2671.004 2000.004,2670.038C2000.004,2669.071 1999.708,2668.587 1999.116,2668.587Z" style="fill:url(#_Linear11);fill-rule:nonzero;"/>
        </g>
        <g transform="matrix(3.820258,0,0,3.806369,-5472.620386,-7382.547676)">
            <path d="M2007.213,2676.863C2007.213,2676.937 2006.765,2676.973 2005.87,2676.973C2004.975,2676.973 2004.527,2676.937 2004.527,2676.863L2004.527,2668.745L2003.993,2668.745C2003.742,2668.745 2003.569,2668.514 2003.475,2668.052C2003.443,2667.904 2003.428,2667.715 2003.428,2667.484C2003.428,2667.253 2003.501,2666.98 2003.647,2666.664C2003.857,2666.202 2004.192,2665.971 2004.653,2665.971C2004.956,2665.971 2005.236,2666.042 2005.493,2666.184C2005.749,2666.325 2005.927,2666.457 2006.027,2666.578C2006.126,2666.699 2006.176,2666.769 2006.176,2666.79C2006.878,2666.244 2007.637,2665.971 2008.453,2665.971C2009.27,2665.971 2009.972,2666.289 2010.558,2666.924C2011.144,2667.56 2011.438,2668.543 2011.438,2669.872C2011.438,2671.202 2011.144,2672.231 2010.558,2672.962C2009.972,2673.692 2009.228,2674.057 2008.328,2674.057C2007.919,2674.057 2007.548,2674.036 2007.213,2673.994L2007.213,2676.863ZM2007.857,2668.729C2007.679,2668.729 2007.506,2668.787 2007.338,2668.903L2007.338,2671.693C2007.516,2671.714 2007.66,2671.724 2007.77,2671.724L2008.029,2671.724C2008.459,2671.682 2008.673,2671.131 2008.673,2670.069C2008.673,2669.176 2008.401,2668.729 2007.857,2668.729Z" style="fill:url(#_Linear12);fill-rule:nonzero;"/>
        </g>
    </g>
    <defs>
        <linearGradient id="_Linear1" x1="0" y1="0" x2="1" y2="0" gradientUnits="userSpaceOnUse" gradientTransform="matrix(-23.440762,67.154549,-67.154549,-23.440762,1829.197184,2626.730506)"><stop offset="0" style="stop-color:rgb(255,124,166);stop-opacity:1"/><stop offset="0.31" style="stop-color:rgb(240,62,118);stop-opacity:1"/><stop offset="1" style="stop-color:rgb(142,18,57);stop-opacity:1"/></linearGradient>
        <linearGradient id="_Linear2" x1="0" y1="0" x2="1" y2="0" gradientUnits="userSpaceOnUse" gradientTransform="matrix(0,14.155224,-14.103759,0,1989.961407,2662.818201)"><stop offset="0" style="stop-color:rgb(255,124,166);stop-opacity:1"/><stop offset="0.31" style="stop-color:rgb(240,62,118);stop-opacity:1"/><stop offset="1" style="stop-color:rgb(142,18,57);stop-opacity:1"/></linearGradient>
        <linearGradient id="_Linear3" x1="0" y1="0" x2="1" y2="0" gradientUnits="userSpaceOnUse" gradientTransform="matrix(0,14.155224,-14.103759,0,1989.961407,2662.818201)"><stop offset="0" style="stop-color:rgb(255,124,166);stop-opacity:1"/><stop offset="0.31" style="stop-color:rgb(240,62,118);stop-opacity:1"/><stop offset="1" style="stop-color:rgb(142,18,57);stop-opacity:1"/></linearGradient>
        <linearGradient id="_Linear4" x1="0" y1="0" x2="1" y2="0" gradientUnits="userSpaceOnUse" gradientTransform="matrix(0,14.155224,-14.103759,0,1989.961407,2662.818201)"><stop offset="0" style="stop-color:rgb(255,124,166);stop-opacity:1"/><stop offset="0.31" style="stop-color:rgb(240,62,118);stop-opacity:1"/><stop offset="1" style="stop-color:rgb(142,18,57);stop-opacity:1"/></linearGradient>
        <linearGradient id="_Linear5" x1="0" y1="0" x2="1" y2="0" gradientUnits="userSpaceOnUse" gradientTransform="matrix(0,14.155224,-14.103759,0,1989.961407,2662.818201)"><stop offset="0" style="stop-color:rgb(255,124,166);stop-opacity:1"/><stop offset="0.31" style="stop-color:rgb(240,62,118);stop-opacity:1"/><stop offset="1" style="stop-color:rgb(142,18,57);stop-opacity:1"/></linearGradient>
        <linearGradient id="_Linear6" x1="0" y1="0" x2="1" y2="0" gradientUnits="userSpaceOnUse" gradientTransform="matrix(0,14.155224,-14.103759,0,1989.961407,2662.818201)"><stop offset="0" style="stop-color:rgb(255,124,166);stop-opacity:1"/><stop offset="0.31" style="stop-color:rgb(240,62,118);stop-opacity:1"/><stop offset="1" style="stop-color:rgb(142,18,57);stop-opacity:1"/></linearGradient>
        <linearGradient id="_Linear7" x1="0" y1="0" x2="1" y2="0" gradientUnits="userSpaceOnUse" gradientTransform="matrix(0,14.155224,-14.103759,0,1989.961407,2662.818201)"><stop offset="0" style="stop-color:rgb(255,124,166);stop-opacity:1"/><stop offset="0.31" style="stop-color:rgb(240,62,118);stop-opacity:1"/><stop offset="1" style="stop-color:rgb(142,18,57);stop-opacity:1"/></linearGradient>
        <linearGradient id="_Linear8" x1="0" y1="0" x2="1" y2="0" gradientUnits="userSpaceOnUse" gradientTransform="matrix(0,14.155224,-14.103759,0,1989.961407,2662.818201)"><stop offset="0" style="stop-color:rgb(255,124,166);stop-opacity:1"/><stop offset="0.31" style="stop-color:rgb(240,62,118);stop-opacity:1"/><stop offset="1" style="stop-color:rgb(142,18,57);stop-opacity:1"/></linearGradient>
        <linearGradient id="_Linear9" x1="0" y1="0" x2="1" y2="0" gradientUnits="userSpaceOnUse" gradientTransform="matrix(0,14.155224,-14.103759,0,1989.961407,2662.818201)"><stop offset="0" style="stop-color:rgb(255,124,166);stop-opacity:1"/><stop offset="0.31" style="stop-color:rgb(240,62,118);stop-opacity:1"/><stop offset="1" style="stop-color:rgb(142,18,57);stop-opacity:1"/></linearGradient>
        <linearGradient id="_Linear10" x1="0" y1="0" x2="1" y2="0" gradientUnits="userSpaceOnUse" gradientTransform="matrix(0,14.155224,-14.103759,0,1989.961407,2662.818201)"><stop offset="0" style="stop-color:rgb(255,124,166);stop-opacity:1"/><stop offset="0.31" style="stop-color:rgb(240,62,118);stop-opacity:1"/><stop offset="1" style="stop-color:rgb(142,18,57);stop-opacity:1"/></linearGradient>
        <linearGradient id="_Linear11" x1="0" y1="0" x2="1" y2="0" gradientUnits="userSpaceOnUse" gradientTransform="matrix(0,14.155224,-14.103759,0,1989.961407,2662.818201)"><stop offset="0" style="stop-color:rgb(255,124,166);stop-opacity:1"/><stop offset="0.31" style="stop-color:rgb(240,62,118);stop-opacity:1"/><stop offset="1" style="stop-color:rgb(142,18,57);stop-opacity:1"/></linearGradient>
        <linearGradient id="_Linear12" x1="0" y1="0" x2="1" y2="0" gradientUnits="userSpaceOnUse" gradientTransform="matrix(0,14.155224,-14.103759,0,1989.961407,2662.818201)"><stop offset="0" style="stop-color:rgb(255,124,166);stop-opacity:1"/><stop offset="0.31" style="stop-color:rgb(240,62,118);stop-opacity:1"/><stop offset="1" style="stop-color:rgb(142,18,57);stop-opacity:1"/></linearGradient>
    </defs>
</svg>
