<svg version="1.2" baseProfile="tiny-ps" xmlns="http://www.w3.org/2000/svg" viewBox="0 0 68 68">
  <title>One Stop Dog Shop</title>
  <path d="M1.973,49.57c-1.262,-1.262 -1.972,-2.975 -1.973,-4.76l0,-22.297c0,-1.785 0.71,-3.498 1.973,-4.76l15.78,-15.78c1.262,-1.262 2.975,-1.972 4.76,-1.973l22.297,0c1.785,0 3.498,0.71 4.76,1.973l15.78,15.78c1.262,1.262 1.972,2.975 1.973,4.76l0,22.297c-0,1.785 -0.71,3.498 -1.973,4.76l-15.78,15.78c-1.262,1.262 -2.975,1.972 -4.76,1.973l-22.297,0c-1.785,-0 -3.498,-0.71 -4.76,-1.973l-15.78,-15.78Z" fill="#f03e76"/>
  <circle cx="31.541" cy="16.752" r="4.228" fill="#fff"/>
  <circle cx="46.338" cy="25.207" r="4.228" fill="#fff"/>
  <circle cx="50.566" cy="42.118" r="4.228" fill="#fff"/>
  <path d="M27.313,29.435c5.798,0 10.569,4.771 10.569,10.569l0,7.398c-0.001,4.058 -3.341,7.396 -7.398,7.396c-3.225,0 -6.096,-2.109 -7.06,-5.187c-0.902,-2.91 -2.804,-4.816 -5.707,-5.718c-3.078,-0.964 -5.187,-3.835 -5.187,-7.06c-0,-4.054 3.332,-7.391 7.386,-7.398l7.398,0Z" fill="#fff"/>
</svg>
